# xmcd CD database file
#
# Track frame offsets:
#	150
#	15794
#	29396
#	48059
#	63664
#	81330
#	98287
#	118648
#	130360
#	146470
#	164509
#	180939
#	199863
#	214638
#	233344
#	249924
#
# Disc length: 3597 seconds
#
# Revision: 0
# Processed by: cddbd v1.5.1PL0 Copyright (c) Steve Scherf et al.
# Submitted via: CDex 1.51
#
DISCID=c10e0b10
DTITLE=Bruno e Marrone - Sonhos e Fantasias
DYEAR=2002
DGENRE=Country
TTITLE0=Ligação Urbana
TTITLE1=Credo em Cruz - Ave Maria
TTITLE2=Agora Vai
TTITLE3=Anjo de Amor
TTITLE4=Eu Queria
TTITLE5=Então Pode Ir
TTITLE6=Se Tiver Coragem Joga Fora
TTITLE7=Tá Liberado
TTITLE8=Menina
TTITLE9=Raio de Luar
TTITLE10=Cama Vazia
TTITLE11=Remar Contra a Maré
TTITLE12=Telefone Mudo
TTITLE13=Noite Sem Sono
TTITLE14=Metade da Metade
TTITLE15=Bijuteria
EXTD=YEAR: 2002
EXTT0=
EXTT1=
EXTT2=
EXTT3=
EXTT4=
EXTT5=
EXTT6=
EXTT7=
EXTT8=
EXTT9=
EXTT10=
EXTT11=
EXTT12=
EXTT13=
EXTT14=
EXTT15=
PLAYORDER=
